<svg width="250" height="250" viewBox="0 0 250 250" fill="none" xmlns="http://www.w3.org/2000/svg">
<mask id="path-1-inside-1_2_2" fill="white">
<path fill-rule="evenodd" clip-rule="evenodd" d="M125 250C194.036 250 250 194.036 250 125C250 55.9644 194.036 0 125 0C55.9644 0 0 55.9644 0 125C0 194.036 55.9644 250 125 250ZM125 225C180.228 225 225 180.228 225 125C225 69.7715 180.228 25 125 25C69.7715 25 25 69.7715 25 125C25 180.228 69.7715 225 125 225Z"/>
</mask>
<path fill-rule="evenodd" clip-rule="evenodd" d="M125 250C194.036 250 250 194.036 250 125C250 55.9644 194.036 0 125 0C55.9644 0 0 55.9644 0 125C0 194.036 55.9644 250 125 250ZM125 225C180.228 225 225 180.228 225 125C225 69.7715 180.228 25 125 25C69.7715 25 25 69.7715 25 125C25 180.228 69.7715 225 125 225Z" fill="#008CBA"/>
<path fill-rule="evenodd" clip-rule="evenodd" d="M125 250C194.036 250 250 194.036 250 125C250 55.9644 194.036 0 125 0C55.9644 0 0 55.9644 0 125C0 194.036 55.9644 250 125 250ZM125 225C180.228 225 225 180.228 225 125C225 69.7715 180.228 25 125 25C69.7715 25 25 69.7715 25 125C25 180.228 69.7715 225 125 225Z" fill="#F6F5FE" fill-opacity="0.3"/>
<path d="M249 125C249 193.483 193.483 249 125 249V251C194.588 251 251 194.588 251 125H249ZM125 1C193.483 1 249 56.5167 249 125H251C251 55.4121 194.588 -1 125 -1V1ZM1 125C1 56.5167 56.5167 1 125 1V-1C55.4121 -1 -1 55.4121 -1 125H1ZM125 249C56.5167 249 1 193.483 1 125H-1C-1 194.588 55.4121 251 125 251V249ZM224 125C224 179.676 179.676 224 125 224V226C180.781 226 226 180.781 226 125H224ZM125 26C179.676 26 224 70.3238 224 125H226C226 69.2192 180.781 24 125 24V26ZM26 125C26 70.3238 70.3238 26 125 26V24C69.2192 24 24 69.2192 24 125H26ZM125 224C70.3238 224 26 179.676 26 125H24C24 180.781 69.2192 226 125 226V224Z" fill="black" mask="url(#path-1-inside-1_2_2)"/>
<path d="M55 64L67.724 187.687L124.818 204L182.276 187.687L195 64H55ZM167.365 103.969H100.354L101.849 119.406H165.87L160.911 165.781L125.219 174.219V174.312H124.818L88.8333 165.781L86.6458 142.094H104.036L105.313 154L124.818 158.531L144.396 154L146.583 134.562H85.7344L81.0677 89.0625H168.969L167.365 103.969V103.969Z" fill="#008CBA"/>
<path d="M55 64L67.724 187.687L124.818 204L182.276 187.687L195 64H55ZM167.365 103.969H100.354L101.849 119.406H165.87L160.911 165.781L125.219 174.219V174.312H124.818L88.8333 165.781L86.6458 142.094H104.036L105.313 154L124.818 158.531L144.396 154L146.583 134.562H85.7344L81.0677 89.0625H168.969L167.365 103.969V103.969Z" fill="white" fill-opacity="0.2"/>
</svg>
