<svg width="140" height="140" viewBox="0 0 140 140" fill="none" xmlns="http://www.w3.org/2000/svg">
<path d="M125 0H15C6.71875 0 0 6.71875 0 15V125C0 133.281 6.71875 140 15 140H125C133.281 140 140 133.281 140 125V15C140 6.71875 133.281 0 125 0ZM76.1875 109.187C76.1875 122.812 68.1875 129.031 56.5312 129.031C46 129.031 39.9062 123.594 36.7812 117L47.5 110.531C49.5625 114.188 51.4375 117.281 55.9688 117.281C60.2813 117.281 63.0312 115.594 63.0312 109V64.2812H76.1875V109.187V109.187ZM107.312 129.031C95.0937 129.031 87.1875 123.219 83.3438 115.594L94.0625 109.406C96.875 114 100.562 117.406 107.031 117.406C112.469 117.406 115.969 114.687 115.969 110.906C115.969 106.406 112.406 104.812 106.375 102.156L103.094 100.75C93.5937 96.7187 87.3125 91.625 87.3125 80.9062C87.3125 71.0312 94.8438 63.5313 106.562 63.5313C114.937 63.5313 120.937 66.4375 125.25 74.0625L115 80.625C112.75 76.5938 110.312 75 106.531 75C102.687 75 100.25 77.4375 100.25 80.625C100.25 84.5625 102.688 86.1563 108.344 88.625L111.625 90.0313C122.813 94.8125 129.094 99.7187 129.094 110.719C129.094 122.531 119.781 129.031 107.312 129.031V129.031Z" fill="#008CBA"/>
</svg>
