<svg width="160" height="140" viewBox="0 0 160 140" fill="none" xmlns="http://www.w3.org/2000/svg">
<path d="M130.688 45.3687C129 44.8062 127.313 44.275 125.625 43.775C125.906 42.6188 126.156 41.4626 126.406 40.3064C130.25 21.6824 127.719 6.71448 119.187 1.77725C110.969 -2.94125 97.5625 1.96474 84 13.7766C82.6562 14.9328 81.3437 16.1515 80.0937 17.3702C79.25 16.5577 78.375 15.7453 77.5 14.964C63.2812 2.33972 49.0313 -2.9725 40.5 1.99599C32.3125 6.74573 29.875 20.8387 33.3125 38.4628C33.6562 40.2127 34.0313 41.9314 34.4688 43.6813C32.4688 44.2437 30.5 44.8687 28.6562 45.5249C11.9687 51.3058 0 60.4304 0 69.8674C0 79.6168 12.75 89.3976 30.0938 95.3348C31.5 95.8035 32.9063 96.2722 34.3438 96.6784C33.875 98.5533 33.4688 100.397 33.0938 102.303C29.8125 119.646 32.375 133.395 40.5625 138.114C49 142.988 63.1875 137.989 77 125.896C78.0937 124.927 79.1875 123.927 80.2812 122.865C81.6562 124.208 83.0938 125.489 84.5312 126.739C97.9062 138.239 111.125 142.895 119.281 138.176C127.719 133.301 130.469 118.521 126.906 100.522C126.625 99.147 126.313 97.7409 125.969 96.3035C126.969 96.0222 127.938 95.7097 128.906 95.3972C146.938 89.4288 160 79.7731 160 69.8674C160 60.3991 147.688 51.2121 130.688 45.3687V45.3687ZM88.4062 18.8388C100.031 8.71438 110.875 4.74584 115.813 7.58944C121.094 10.6205 123.125 22.8699 119.812 38.9628C119.594 40.0252 119.375 41.0564 119.094 42.0876C112.156 40.5252 105.125 39.4002 98.0625 38.7753C94 32.9631 89.5625 27.4009 84.75 22.1824C85.9688 21.0262 87.1562 19.9325 88.4062 18.8388V18.8388ZM52.25 86.0852C53.8437 88.8038 55.4688 91.5224 57.1875 94.1786C52.3125 93.6473 47.4688 92.8661 42.6875 91.8349C44.0625 87.3352 45.7812 82.6792 47.7812 77.9294C49.2187 80.6793 50.6875 83.3979 52.25 86.0852V86.0852ZM42.7812 48.4935C47.2812 47.4936 52.0625 46.6811 57.0312 46.0561C55.375 48.6497 53.75 51.3059 52.2188 53.9932C50.6875 56.6493 49.1875 59.3679 47.7812 62.1178C45.8125 57.4618 44.1562 52.8995 42.7812 48.4935ZM51.3438 70.0236C53.4063 65.7113 55.6562 61.4928 58.0312 57.3368C60.4062 53.1807 62.9688 49.1497 65.6563 45.1812C70.3438 44.8374 75.125 44.65 80 44.65C84.875 44.65 89.6875 44.8374 94.3437 45.1812C97 49.1185 99.5313 53.1495 101.938 57.2743C104.344 61.3991 106.594 65.6176 108.719 69.8986C106.625 74.2109 104.375 78.4606 101.969 82.6479C99.5937 86.804 97.0625 90.835 94.4063 94.8348C89.75 95.1785 84.9062 95.3348 80 95.3348C75.0938 95.3348 70.3437 95.1785 65.75 94.8973C63.0312 90.9287 60.4688 86.8665 58.0625 82.7104C55.6563 78.5544 53.4375 74.3359 51.3438 70.0236ZM107.781 86.0227C109.375 83.2729 110.875 80.4918 112.344 77.6794C114.344 82.2105 116.094 86.804 117.625 91.5224C112.781 92.6161 107.875 93.4598 102.937 94.0223C104.625 91.3975 106.219 88.7101 107.781 86.0227ZM112.281 62.1178C110.812 59.3679 109.312 56.6181 107.75 53.9307C106.219 51.2746 104.625 48.6497 102.969 46.0561C108 46.6811 112.812 47.5248 117.312 48.556C115.875 53.1807 114.187 57.6805 112.281 62.1178V62.1178ZM80.0625 26.9634C83.3438 30.5257 86.4375 34.2755 89.3125 38.1503C83.125 37.8691 76.9063 37.8691 70.7188 38.1503C73.7813 34.1193 76.9375 30.3695 80.0625 26.9634ZM43.8125 7.80818C49.0625 4.74584 60.7188 9.12061 73 19.995C73.7813 20.6825 74.5625 21.4324 75.375 22.1824C70.5312 27.4009 66.0625 32.9631 61.9688 38.7753C54.9063 39.4002 47.9063 40.4939 40.9688 42.0251C40.5625 40.4314 40.2187 38.8065 39.875 37.1816C36.9375 22.0574 38.875 10.6518 43.8125 7.80818V7.80818ZM36.1562 90.1788C34.8437 89.8038 33.5625 89.3976 32.2813 88.9601C25.625 86.8665 18.0625 83.5541 12.5937 79.2106C9.4375 77.0232 7.3125 73.6484 6.71875 69.8674C6.71875 64.1489 16.5937 56.8368 30.8437 51.8683C32.625 51.2434 34.4375 50.6809 36.25 50.1497C38.375 56.9305 40.9375 63.5864 43.9062 70.0236C40.9062 76.5545 38.3125 83.3041 36.1562 90.1788V90.1788ZM72.5938 120.802C67.4375 125.521 61.4687 129.27 54.9687 131.833C51.5 133.489 47.5 133.645 43.9375 132.239C38.9688 129.364 36.9062 118.334 39.7187 103.491C40.0625 101.741 40.4375 99.9907 40.875 98.2721C47.875 99.772 54.9375 100.803 62.0937 101.334C66.2187 107.178 70.75 112.771 75.5937 118.021C74.5937 118.99 73.5938 119.927 72.5938 120.802ZM80.25 113.209C77.0625 109.771 73.875 105.959 70.7812 101.866C73.7813 101.991 76.875 102.053 80 102.053C83.2188 102.053 86.375 101.991 89.5 101.834C86.625 105.803 83.5312 109.584 80.25 113.209V113.209ZM121.094 122.583C120.813 126.396 118.938 129.958 115.938 132.364C110.969 135.239 100.375 131.489 88.9375 121.677C87.625 120.552 86.3125 119.333 84.9687 118.084C89.75 112.803 94.1563 107.209 98.1563 101.334C105.313 100.741 112.437 99.647 119.469 98.0533C119.781 99.3345 120.062 100.616 120.312 101.866C121.844 108.615 122.094 115.646 121.094 122.583V122.583ZM126.781 88.9913C125.906 89.2726 125.031 89.5538 124.125 89.8038C121.938 82.9917 119.25 76.3358 116.156 69.8674C119.156 63.4927 121.688 56.9305 123.813 50.2122C125.438 50.6809 127 51.1809 128.5 51.6808C143.063 56.6806 153.281 64.1177 153.281 69.8049C153.281 75.9295 142.375 83.8354 126.781 88.9913ZM80 84.3041C87.9062 84.3041 94.3125 77.8982 94.3125 69.9924C94.3125 62.0865 87.9062 55.6806 80 55.6806C72.0938 55.6806 65.6875 62.0865 65.6875 69.9924C65.6875 77.8982 72.0938 84.3041 80 84.3041Z" fill="#008CBA"/>
</svg>
