<svg width="170" height="140" viewBox="0 0 170 140" fill="none" xmlns="http://www.w3.org/2000/svg">
<path d="M98.7633 52.9493C98.7633 46.0415 94.0445 42.2282 85.7562 42.2282H70.5107V64.4831H83.3665C93.2883 64.4519 98.7633 60.326 98.7633 52.9493ZM154.27 48.9484C151.397 39.29 150.973 27.4436 151.306 18.2853C151.639 8.75195 144.439 0 134.76 0H35.3007C25.5907 0 18.4217 8.78321 18.7544 18.2853C19.0569 27.4436 18.6637 39.29 15.79 48.9484C12.8861 58.6381 8.01601 64.7645 0 65.5459V74.4541C7.98576 75.2355 12.8861 81.3619 15.79 91.0516C18.6637 100.71 19.0872 112.556 18.7544 121.715C18.4217 131.248 25.621 140 35.3007 140H134.73C144.439 140 151.609 131.217 151.276 121.715C150.973 112.556 151.367 100.71 154.24 91.0516C157.144 81.3619 162.014 75.2355 170 74.4541V65.5459C162.044 64.7645 157.144 58.6381 154.27 48.9484ZM88.6904 107.243H59.0765V32.7573H88.5391C101.637 32.7573 110.228 40.0714 110.228 51.324C110.228 59.232 104.45 66.296 97.0694 67.5151V67.9214C107.112 69.0467 113.858 76.2358 113.858 86.1442C113.858 99.3034 104.39 107.243 88.6904 107.243ZM85.6655 73.2664H70.5107V97.7718H86.331C96.6762 97.7718 102.151 93.4896 102.151 85.4253C102.151 77.3923 96.5249 73.2664 85.6655 73.2664Z" fill="#008CBA"/>
</svg>
